<svg height='100px' width='100px'  fill="#1A1A1A" xmlns="http://www.w3.org/2000/svg" xmlns:xlink="http://www.w3.org/1999/xlink" version="1.1" x="0px" y="0px" viewBox="0 0 100 100" enable-background="new 0 0 100 100" xml:space="preserve"><g><rect x="-192" width="185" height="99"></rect><rect y="-36" width="100" height="30"></rect><text transform="matrix(1 0 0 1 66 -19.5)" fill="#1A1A1A" font-family="'Helvetica'" font-size="2.4">http://thenounproject.com</text><text transform="matrix(1 0 0 1 7.166 -24.5)"><tspan x="0" y="0" fill="#1A1A1A" font-family="'Helvetica-Bold'" font-size="6.1578">The Noun Project</tspan><tspan x="1.12" y="4.8" fill="#1A1A1A" font-family="'Helvetica-Bold'" font-size="4">Icon Template</tspan></text><text transform="matrix(1 0 0 1 -178.5 10.5)" fill="#1A1A1A" font-family="'Helvetica-Bold'" font-size="6.1578">Reminders</text><line fill="#1A1A1A" stroke="#1A1A1A" stroke-miterlimit="10" x1="8" y1="-14.5" x2="18" y2="-14.5"></line><line fill="#1A1A1A" stroke="#1A1A1A" stroke-miterlimit="10" x1="-179" y1="16.5" x2="-162" y2="16.5"></line><g><g><g><rect x="-170.802" y="31.318" fill="#1A1A1A" width="8.721" height="8.642"></rect><path fill="#1A1A1A" d="M-164.455,42.312h4.747v-4.703h-4.747V42.312z M-159.266,42.749h-5.63V37.17h5.63V42.749      L-159.266,42.749z M-166.221,44.062h8.279v-8.203h-8.279V44.062L-166.221,44.062z M-157.5,44.5h-9.163v-9.079h9.163V44.5      L-157.5,44.5z"></path><polygon fill="#1A1A1A" points="-166.149,44.133 -166.292,43.991 -158.013,35.787 -157.871,35.929     "></polygon></g></g></g><rect x="-179" y="58" fill="none" width="35" height="32.5"></rect><text transform="matrix(1 0 0 1 -179 60.1572)"><tspan x="0" y="0" fill="#1A1A1A" font-family="'Helvetica-Bold'" font-size="3">Strokes</tspan><tspan x="0" y="5" fill="#1A1A1A" font-family="'Helvetica'" font-size="2.4">Try to keep strokes at 4px</tspan><tspan x="0" y="10" fill="#1A1A1A" font-family="'Helvetica'" font-size="2.4">Minimum stroke weight is 2px</tspan><tspan x="0" y="14.5" fill="#1A1A1A" font-family="'Helvetica'" font-size="2.4">For thicker strokes use even </tspan><tspan x="0" y="17.5" fill="#1A1A1A" font-family="'Helvetica'" font-size="2.4">numbers: 6px, 8px etc.</tspan><tspan x="0" y="22" fill="#1A1A1A" font-family="'Helvetica-Bold'" font-size="2.4">Remember to expand strokes </tspan><tspan x="0" y="25" fill="#1A1A1A" font-family="'Helvetica-Bold'" font-size="2.4">before saving as an SVG </tspan></text><rect x="-136.5" y="58" fill="none" width="35" height="32.5"></rect><text transform="matrix(1 0 0 1 -136.5 60.1572)"><tspan x="0" y="0" fill="#1A1A1A" font-family="'Helvetica-Bold'" font-size="3">Size</tspan><tspan x="0" y="5" fill="#1A1A1A" font-family="'Helvetica'" font-size="2.4">Cannot be wider or taller than </tspan><tspan x="0" y="8.5" fill="#1A1A1A" font-family="'Helvetica'" font-size="2.4">100px (artboard size)</tspan><tspan x="0" y="13.5" fill="#1A1A1A" font-family="'Helvetica'" font-size="2.4">Scale your icon to fill as much of </tspan><tspan x="0" y="16.5" fill="#1A1A1A" font-family="'Helvetica'" font-size="2.4">the artboard as possible</tspan></text><rect x="-94" y="58" fill="none" width="35" height="32.5"></rect><text transform="matrix(1 0 0 1 -94 60.1572)"><tspan x="0" y="0" fill="#1A1A1A" font-family="'Helvetica-Bold'" font-size="3">Ungroup</tspan><tspan x="0" y="5" fill="#1A1A1A" font-family="'Helvetica'" font-size="2.4">If your design has more than one </tspan><tspan x="0" y="8" fill="#1A1A1A" font-family="'Helvetica'" font-size="2.4">shape, make sure to ungroup</tspan></text><rect x="-50" y="58" fill="none" width="35" height="32.5"></rect><text transform="matrix(1 0 0 1 -50 60.1572)"><tspan x="0" y="0" fill="#1A1A1A" font-family="'Helvetica-Bold'" font-size="3">Save as</tspan><tspan x="0" y="5" fill="#1A1A1A" font-family="'Helvetica'" font-size="2.4">Save as .SVG and make sure </tspan><tspan x="0" y="8" fill="#1A1A1A" font-family="'Helvetica'" font-size="2.4">“Use Artboards” is checked</tspan></text><text transform="matrix(1.0074 0 0 1 -125.542 30.5933)" fill="#1A1A1A" font-family="'Helvetica'" font-size="2.5731">100px</text><text transform="matrix(1.0074 0 0 1 -41 39)" fill="#1A1A1A" font-family="'Helvetica-Bold'" font-size="5.1462">.SVG</text><rect x="-126.514" y="34.815" fill="#1A1A1A" width="10.261" height="10.185"></rect><rect x="-126.477" y="31.766" fill="#1A1A1A" width="0.522" height="2.337"></rect><rect x="-116.812" y="31.766" fill="#1A1A1A" width="0.523" height="2.337"></rect><rect x="-127" y="32.337" fill="#1A1A1A" width="11.233" height="0.572"></rect><g><rect x="-83.805" y="33.844" fill="#1A1A1A" width="10.305" height="10.156"></rect><rect x="-76.809" y="28.707" fill="#1A1A1A" width="3.308" height="3.261"></rect></g><rect x="-178.5" y="22.5" fill="#1A1A1A" stroke="#1A1A1A" stroke-miterlimit="10" width="30" height="30"></rect><rect x="-136.5" y="22.5" fill="#1A1A1A" stroke="#1A1A1A" stroke-miterlimit="10" width="30" height="30"></rect><rect x="-93.5" y="22.5" fill="#1A1A1A" stroke="#1A1A1A" stroke-miterlimit="10" width="30" height="30"></rect><rect x="-49.5" y="22.5" fill="#1A1A1A" stroke="#1A1A1A" stroke-miterlimit="10" width="30" height="30"></rect></g><g><path d="M84.351,45.865L58.422,14.762C57.488,13.643,56.115,13,54.656,13c-1.141,0-2.252,0.402-3.129,1.133   c-2.073,1.729-2.354,4.822-0.627,6.895l19.256,23.1l-50.258-0.055c-2.695,0-4.893,2.193-4.898,4.889   c-0.004,2.697,2.188,4.896,4.889,4.902l50.23,0.055L50.898,76.975c-1.723,2.073-1.441,5.164,0.629,6.889   C52.405,84.596,53.518,85,54.659,85h0.001c1.457,0,2.828-0.643,3.761-1.762l25.932-31.105c0.731-0.878,1.133-1.991,1.133-3.133   C85.485,47.855,85.082,46.74,84.351,45.865z"></path></g></svg>